<mxfile host="app.diagrams.net" modified="2023-12-19T08:53:13.227Z" agent="Mozilla/5.0 (Macintosh; Intel Mac OS X 10_15_7) AppleWebKit/605.1.15 (KHTML, like Gecko) Version/16.6 Safari/605.1.15" version="22.1.11" etag="1fvRCJQdCb_aZWSeVF9I" type="github">
  <diagram name="Side-1" id="s957pI-xvF8-p5Hmsx9Y">
    <mxGraphModel>
      <root>
        <mxCell id="0" />
        <mxCell id="1" parent="0" />
      </root>
    </mxGraphModel>
  </diagram>
</mxfile>
